<svg width="80" height="80" viewBox="0 0 80 80" fill="none" xmlns="http://www.w3.org/2000/svg">
<rect width="80" height="80" rx="16" fill="#F4F5F6"/>
<path d="M15 35.8485C17.5072 22.7555 32.0628 17.3929 39.0272 16.3482C32.3413 22.7554 30.902 32.2502 30.6699 35.8485C26.2127 34.4556 18.134 35.036 15 35.8485Z" fill="#198B42"/>
<path d="M65.8403 35.8485C63.3331 22.7555 48.7776 17.3929 41.8132 16.3482C48.499 22.7554 49.9383 32.2502 50.1704 35.8485C54.6277 34.4556 62.7064 35.036 65.8403 35.8485Z" fill="#EADB1B"/>
<path d="M49.4736 35.8485C42.161 33.7592 34.152 34.9199 31.3662 35.8485C32.4109 27.8395 34.5002 20.5269 40.4199 16C46.6879 20.1786 49.0093 30.7413 49.4736 35.8485Z" fill="#198B42"/>
<path d="M31.3662 57.4382C31.8594 59.904 33.8542 63.3477 36.7573 62.9717C39.946 62.5586 40.7681 58.4672 40.7681 55.2519V34.4557" stroke="#198B42" stroke-width="1.7411" stroke-linecap="round"/>
</svg>
