<svg xmlns="http://www.w3.org/2000/svg" width="400" height="250" fill="none"><defs><clipPath id="a"><path fill="#fff" fill-opacity="0" d="M0 0h400v250H0z"/></clipPath></defs><path fill="#FFF" d="M0 0h400v250H0z"/><g clip-path="url(#a)"><path fill="#B71C2D" d="M56.55 189.55c-.85 2.35-1.85 4.12-2.99 5.32h13.4l3.82-19.09h-10.5l-1.14 4.72c-.88 3.68-1.74 6.7-2.59 9.05Zm17.44 5.32h4.34L75.88 207h-6.59l1.27-6.35h-21.7L47.58 207H41l2.46-12.13h.92c1.9-.06 3.55-1.46 4.94-4.21 1.39-2.74 2.66-6.52 3.8-11.34l2.24-9.32H79l-5.01 24.87Z"/><path d="M53.56 194.87h13.4l3.82-19.09h-10.5l-1.14 4.72c-.88 3.68-1.74 6.7-2.59 9.05-.85 2.35-1.85 4.12-2.99 5.32Zm24.77 0L75.88 207h-6.59l1.27-6.35h-21.7L47.58 207H41l2.46-12.13h.92c1.9-.06 3.55-1.46 4.94-4.21 1.39-2.74 2.66-6.52 3.8-11.34l2.24-9.32H79l-5.01 24.87h4.34Z"/><path fill="#B71C2D" d="M103.75 184.96c1.3-1.09 1.95-2.65 1.95-4.69 0-1.48-.5-2.58-1.49-3.32-.99-.74-2.42-1.11-4.29-1.11h-5.65l-2.18 10.76h6.09c2.41 0 4.26-.54 5.57-1.64Zm6.07-12.42c2.11 1.7 3.18 4.07 3.18 7.11 0 2.6-.62 4.86-1.85 6.8-1.23 1.93-2.98 3.42-5.25 4.45-2.27 1.03-4.94 1.55-8.03 1.55h-6.93L89.25 201H82l6.22-31h12.59c3.88 0 6.88.84 9.01 2.54Z"/><path d="M105.7 180.27c0-1.48-.5-2.58-1.49-3.32-.99-.74-2.42-1.11-4.29-1.11h-5.65l-2.18 10.76h6.09c2.41 0 4.26-.54 5.57-1.64 1.3-1.09 1.95-2.65 1.95-4.69Zm7.3-.62c0 2.6-.62 4.86-1.85 6.8-1.23 1.93-2.98 3.42-5.25 4.45-2.27 1.03-4.94 1.55-8.03 1.55h-6.93L89.25 201H82l6.22-31h12.59c3.88 0 6.88.84 9.01 2.54 2.11 1.7 3.18 4.07 3.18 7.11Z"/><path fill="#B71C2D" d="m133.38 188.91-2.56-11.96-7.14 11.96h9.7Zm1.17 5.44h-14.12l-3.94 6.65H109l19.62-31h6.93l7.45 31h-7.02l-1.43-6.65Z"/><path d="m130.82 176.95-7.14 11.96h9.7l-2.56-11.96Zm-10.39 17.4-3.94 6.65H109l19.62-31h6.93l7.45 31h-7.02l-1.43-6.65h-14.12Z"/><path fill="#B71C2D" d="M162.25 167.32c-1.29-.91-1.94-2.27-1.94-4.06 0-.55.03-.97.09-1.26h4.58c-.02.14-.04.34-.04.6 0 .85.29 1.5.87 1.98.58.48 1.42.72 2.51.72 1.16 0 2.12-.28 2.87-.85.76-.56 1.25-1.38 1.45-2.45h4.68c-.39 2.26-1.35 3.94-2.89 5.04-1.55 1.1-3.7 1.65-6.46 1.65-2.53 0-4.43-.45-5.72-1.37Zm-9.02 3.24h7.12l-4.14 19.83 18.93-19.83H182L175.76 201h-7.12l4.18-19.79L153.85 201H147l6.23-30.44Z"/><path d="M160.31 163.26c0-.55.03-.97.09-1.26h4.58c-.02.14-.04.34-.04.6 0 .85.29 1.5.87 1.98.58.48 1.42.72 2.51.72 1.16 0 2.12-.28 2.87-.85.76-.56 1.25-1.38 1.45-2.45h4.68c-.39 2.26-1.35 3.94-2.89 5.04-1.55 1.1-3.7 1.65-6.46 1.65-2.53 0-4.43-.45-5.72-1.37-1.29-.91-1.94-2.27-1.94-4.06Zm.04 7.3-4.14 19.83 18.93-19.83H182L175.76 201h-7.12l4.18-19.79L153.85 201H147l6.23-30.44h7.12Z"/><path fill="#B71C2D" d="m195 175.4-1.44 7.31h7.17c1.86 0 3.3-.38 4.33-1.13 1.03-.76 1.54-1.84 1.54-3.26 0-1.95-1.49-2.92-4.48-2.92H195Zm9 19.04c1.1-.77 1.65-1.87 1.65-3.32 0-2.13-1.52-3.19-4.57-3.19h-8.52l-1.48 7.66h8.31c1.97 0 3.5-.38 4.61-1.15Zm7.58-7.06c.71 1.05 1.07 2.32 1.07 3.83 0 3.22-1.25 5.65-3.74 7.31-2.49 1.65-5.81 2.48-9.96 2.48H183l6.08-31h14.7c3.27 0 5.8.61 7.56 1.83 1.77 1.23 2.66 2.98 2.66 5.25 0 1.89-.49 3.51-1.46 4.85-.97 1.34-2.3 2.37-3.98 3.08 1.31.53 2.31 1.32 3.02 2.37Z"/><path d="M193.56 182.71h7.17c1.86 0 3.3-.38 4.33-1.13 1.03-.76 1.54-1.84 1.54-3.26 0-1.95-1.49-2.92-4.48-2.92H195l-1.44 7.31Zm12.09 8.41c0-2.13-1.52-3.19-4.57-3.19h-8.52l-1.48 7.66h8.31c1.97 0 3.5-.38 4.61-1.15 1.1-.77 1.65-1.87 1.65-3.32Zm7 .09c0 3.22-1.25 5.65-3.74 7.31-2.49 1.65-5.81 2.48-9.96 2.48H183l6.08-31h14.7c3.27 0 5.8.61 7.56 1.83 1.77 1.23 2.66 2.98 2.66 5.25 0 1.89-.49 3.51-1.46 4.85-.97 1.34-2.3 2.37-3.98 3.08 1.31.53 2.31 1.32 3.02 2.37s1.07 2.32 1.07 3.83Z"/><path fill="#1C323B" d="M242.3 186.92c.79 1.11 1.19 2.4 1.19 3.86 0 2.02-.71 3.8-2.14 5.35-1.43 1.55-3.33 2.75-5.71 3.59-2.37.85-4.92 1.28-7.66 1.28-2.13 0-4.23-.28-6.3-.84-2.08-.55-3.98-1.4-5.68-2.54l3.27-5.08c1.21.84 2.58 1.48 4.13 1.9 1.55.43 3.1.64 4.66.64 2.3 0 4.26-.44 5.86-1.32 1.61-.87 2.41-2.06 2.41-3.55 0-1.99-1.53-2.98-4.6-2.98h-7.64l1.06-5.35h7.16c1.56 0 2.82-.34 3.78-1.03.96-.68 1.43-1.57 1.43-2.65 0-1.11-.5-1.96-1.52-2.54-1.02-.59-2.38-.88-4.09-.88-1.3 0-2.7.18-4.22.55-1.52.37-3.01.91-4.49 1.64l-1.06-5.52c3.59-1.64 7.22-2.45 10.88-2.45 2.23 0 4.26.32 6.07.96 1.82.64 3.25 1.56 4.32 2.76 1.05 1.2 1.59 2.6 1.59 4.21 0 1.64-.54 3.12-1.62 4.45s-2.53 2.33-4.35 3c1.38.59 2.47 1.43 3.27 2.54Z"/><path d="M243.49 190.78c0 2.02-.71 3.8-2.14 5.35-1.43 1.55-3.33 2.75-5.71 3.59-2.37.85-4.92 1.28-7.66 1.28-2.13 0-4.23-.28-6.3-.84-2.08-.55-3.98-1.4-5.68-2.54l3.27-5.08c1.21.84 2.58 1.48 4.13 1.9 1.55.43 3.1.64 4.66.64 2.3 0 4.26-.44 5.86-1.32 1.61-.87 2.41-2.06 2.41-3.55 0-1.99-1.53-2.98-4.6-2.98h-7.64l1.06-5.35h7.16c1.56 0 2.82-.34 3.78-1.03.96-.68 1.43-1.57 1.43-2.65 0-1.11-.5-1.96-1.52-2.54-1.02-.59-2.38-.88-4.09-.88-1.3 0-2.7.18-4.22.55-1.52.37-3.01.91-4.49 1.64l-1.06-5.52c3.59-1.64 7.22-2.45 10.88-2.45 2.23 0 4.26.32 6.07.96 1.82.64 3.25 1.56 4.32 2.76 1.05 1.2 1.59 2.6 1.59 4.21 0 1.64-.54 3.12-1.62 4.45s-2.53 2.33-4.35 3c1.38.59 2.47 1.43 3.27 2.54.79 1.11 1.19 2.4 1.19 3.86Z"/><path fill="#1C323B" d="m268.38 188.91-2.56-11.96-7.14 11.96h9.7Zm1.17 5.44h-14.12l-3.94 6.65H244l19.62-31h6.93l7.45 31h-7.02l-1.43-6.65Z"/><path d="m265.82 176.95-7.14 11.96h9.7l-2.56-11.96Zm-10.39 17.4-3.94 6.65H244l19.62-31h6.93l7.45 31h-7.02l-1.43-6.65h-14.12Z"/><path fill="#1C323B" d="M297.25 167.32c-1.29-.91-1.94-2.27-1.94-4.06 0-.55.03-.97.09-1.26h4.59c-.03.14-.05.34-.05.6 0 .85.29 1.5.87 1.98.58.48 1.42.72 2.51.72 1.16 0 2.12-.28 2.87-.85.76-.56 1.25-1.38 1.45-2.45h4.68c-.39 2.26-1.35 3.94-2.89 5.04-1.55 1.1-3.7 1.65-6.46 1.65-2.53 0-4.43-.45-5.72-1.37Zm-9.02 3.24h7.12l-4.14 19.83 18.93-19.83H317L310.76 201h-7.12l4.18-19.79L288.85 201H282l6.23-30.44Z"/><path d="M295.31 163.26c0-.55.03-.97.09-1.26h4.59c-.03.14-.05.34-.05.6 0 .85.29 1.5.87 1.98.58.48 1.42.72 2.51.72 1.16 0 2.12-.28 2.87-.85.76-.56 1.25-1.38 1.45-2.45h4.68c-.39 2.26-1.35 3.94-2.89 5.04-1.55 1.1-3.7 1.65-6.46 1.65-2.53 0-4.43-.45-5.72-1.37-1.29-.91-1.94-2.27-1.94-4.06Zm.04 7.3-4.14 19.83 18.93-19.83H317L310.76 201h-7.12l4.18-19.79L288.85 201H282l6.23-30.44h7.12Z"/><path fill="#1C323B" d="m359 170-6.15 31h-6.68l3.67-18.47-11.85 15.19h-3.23l-6.37-15.41-3.71 18.69H318l6.19-31h5.84l7.74 19.3 15.08-19.3H359Z"/><path d="M352.85 201h-6.68l3.67-18.47-11.85 15.19h-3.23l-6.37-15.41-3.71 18.69H318l6.19-31h5.84l7.74 19.3 15.08-19.3H359l-6.15 31Z"/><path fill="#B71C2D" d="M254.5 63.09c-6.2-13.75-17.07-20.69-31.97-20.95-15.43-.28-20.35-.07-35.78-.07-14.92 0-29.84 0-44.75.01l21.09 28.75c17.88-.03 34.09-.02 51.75-.02V57.45l21.4 21.42-21.4 21.42V86.94H194.3c-7.47 10.3-14.42 19.87-21.55 29.67 5.85 8 11.94 16.32 17.87 24.39 4.01-5.5 7.22-10.06 13.05-18.07 3.1-4.28 4.42-6.09 5.22-7.19 5.89-.01 10.52-.02 11.87-.04 4.45-.07 8.82-.87 12.99-2.46 5.78-2.21 10.77-5.6 14.91-10.22 4.59-5.11 7.52-11.09 8.75-17.81 1.39-7.64.27-15.06-2.91-22.12Z"/><path d="M222.53 42.14c-15.43-.28-20.35-.07-35.78-.07-14.92 0-29.84 0-44.75.01l21.09 28.75c17.88-.03 34.09-.02 51.75-.02V57.45l21.4 21.42-21.4 21.42V86.94H194.3c-7.47 10.3-14.42 19.87-21.55 29.67 5.85 8 11.94 16.32 17.87 24.39 4.01-5.5 7.22-10.06 13.05-18.07 3.1-4.28 4.42-6.09 5.22-7.19 5.89-.01 10.52-.02 11.87-.04 4.45-.07 8.82-.87 12.99-2.46 5.78-2.21 10.77-5.6 14.91-10.22 4.59-5.11 7.52-11.09 8.75-17.81 1.39-7.64.27-15.06-2.91-22.12-6.2-13.75-17.07-20.69-31.97-20.95Z"/></g></svg>