<svg width="80" height="81" viewBox="0 0 80 81" fill="none" xmlns="http://www.w3.org/2000/svg">
<rect y="0.836548" width="80" height="80" rx="16" fill="#F4F5F6"/>
<path fill-rule="evenodd" clip-rule="evenodd" d="M18 18.8365H44.9212L43.6552 22.8243C42.532 22.6116 41.3729 22.5003 40.1878 22.5003C29.9576 22.5003 21.6643 30.7936 21.6643 41.0238C21.6643 49.471 27.3186 56.5976 35.0489 58.8251L33.9171 63.6185H18V18.8365Z" fill="#BCCE18"/>
<path d="M38.5207 51.3665C35.8857 51.133 33.4514 49.8623 31.7533 47.8339C30.0552 45.8056 29.2324 43.1858 29.4659 40.5508C29.6994 37.9158 30.9701 35.4815 32.9984 33.7834C35.0267 32.0853 37.6466 31.2625 40.2816 31.496L39.4011 41.4312L38.5207 51.3665Z" fill="#E4087F"/>
<path d="M24.2251 43.1594C23.7705 44.9369 23.9282 46.8158 24.6727 48.4928C25.4172 50.1697 26.7051 51.5468 28.3285 52.4018L30.4564 48.3613C29.7415 47.9848 29.1743 47.3783 28.8464 46.6397C28.5185 45.9012 28.449 45.0737 28.6493 44.2909L24.2251 43.1594Z" fill="#E4087F"/>
<path d="M28.6238 30.2061C29.327 28.5114 30.5807 27.1031 32.1826 26.2086C33.7845 25.314 35.6411 24.9854 37.4528 25.2757L36.7301 29.7847C35.9323 29.6569 35.1146 29.8016 34.4091 30.1956C33.7036 30.5896 33.1514 31.2098 32.8418 31.9562L28.6238 30.2061Z" fill="#E4087F"/>
<path d="M56.1961 38.9088C56.4944 37.0984 56.174 35.2404 55.2865 33.6345C54.399 32.0287 52.9962 30.7688 51.3046 30.0582L49.536 34.2684C50.281 34.5813 50.8988 35.1362 51.2897 35.8434C51.6806 36.5507 51.8217 37.369 51.6903 38.1663L56.1961 38.9088Z" fill="#BCCE18"/>
<path d="M51.6454 52.793C50.7976 54.4202 49.4262 55.7141 47.7526 56.466C46.0789 57.2179 44.2008 57.3839 42.4212 56.9371L43.5332 52.508C44.3169 52.7048 45.1441 52.6317 45.8812 52.3005C46.6183 51.9694 47.2222 51.3995 47.5956 50.6829L51.6454 52.793Z" fill="#BCCE18"/>
<path d="M39.771 51.3774C42.4065 51.6057 45.0247 50.7777 47.0496 49.0756C49.0746 47.3735 50.3405 44.9367 50.5688 42.3012C50.7971 39.6658 49.9691 37.0476 48.267 35.0226C46.5649 32.9977 44.1281 31.7318 41.4926 31.5035L40.6318 41.4404L39.771 51.3774Z" fill="#BCCE18"/>
<path fill-rule="evenodd" clip-rule="evenodd" d="M48.5461 18.8365L47.0667 23.8197C53.8908 26.5508 58.7112 33.2243 58.7112 41.0238C58.7112 51.254 50.4179 59.5472 40.1877 59.5472C39.7291 59.5472 39.2745 59.5306 38.8242 59.4978L37.9062 63.6185H62.7819V18.8365H48.5461Z" fill="#E4087F"/>
</svg>
