<?xml version="1.0" encoding="utf-8"?>
<!-- Generator: Adobe Illustrator 16.0.3, SVG Export Plug-In . SVG Version: 6.00 Build 0)  -->
<!DOCTYPE svg PUBLIC "-//W3C//DTD SVG 1.1//EN" "http://www.w3.org/Graphics/SVG/1.1/DTD/svg11.dtd">
<svg version="1.1" id="Слой_1" xmlns="http://www.w3.org/2000/svg" xmlns:xlink="http://www.w3.org/1999/xlink" x="0px" y="0px"
	 width="400px" height="250px" viewBox="0 0 400 250" enable-background="new 0 0 400 250" xml:space="preserve">
<g>
	<g>
		<g>
			<path fill="#1D1D1B" d="M139.922,155.221V94.676h31.864c11.544,0,17.44,7.348,17.44,15.442c0,7.613-4.717,12.709-10.434,13.873
				c6.448,1.01,11.62,7.278,11.62,14.883c0,9.074-6.072,16.347-17.616,16.347H139.922z M176.059,112.371
				c0-3.821-2.713-6.634-7.084-6.634h-16.156v13.188h16.156C173.346,118.926,176.059,116.193,176.059,112.371z M177.256,137.075
				c0-3.823-2.733-7.072-7.83-7.072h-16.607v14.079h16.607C174.334,144.082,177.256,141.422,177.256,137.075z"/>
			<path fill="#1D1D1B" d="M244.191,94.676v11.355h-31.354v10.694h15.706c12.896,0,20.057,8.808,20.057,19.263
				c0,10.423-7.053,19.232-20.057,19.232h-28.601V94.676H244.191z M212.837,128.089v15.775h14.013c4.984,0,8.592-3.078,8.592-7.876
				c0-4.914-3.607-7.899-8.592-7.899H212.837z"/>
			<path fill="#1D1D1B" d="M256.727,155.221V94.676h28.338c13.159,0,20.322,8.887,20.322,19.528
				c0,10.534-7.272,19.524-20.322,19.524h-15.445v21.492H256.727z M292.226,114.204c0-5.095-3.82-8.173-8.919-8.173h-13.688v16.344
				h13.688C288.405,122.375,292.226,119.192,292.226,114.204z"/>
			<path fill="#1D1D1B" d="M312.373,155.221V94.676h28.334c13.161,0,20.323,8.887,20.323,19.528
				c0,10.534-7.271,19.524-20.323,19.524h-15.44v21.492H312.373z M347.872,114.204c0-5.095-3.821-8.173-8.919-8.173h-13.687v16.344
				h13.687C344.051,122.375,347.872,119.192,347.872,114.204z"/>
		</g>
	</g>
	<rect x="54.13" y="168.744" fill="#FFD300" width="306.855" height="6.756"/>
	<g>
		<polygon fill="#1D1D1B" points="75.356,154.227 55.179,155.288 53.495,123.014 73.646,121.958 		"/>
		<polygon fill="#1D1D1B" points="112.836,135.775 107.612,155.288 76.398,146.945 81.634,127.417 		"/>
		<polygon fill="#1D1D1B" points="106.856,94.37 123.811,105.369 106.197,132.476 89.257,121.453 		"/>
		<polygon fill="#1D1D1B" points="65.7,87.206 81.395,74.5 101.739,99.606 86.05,112.321 		"/>
		<polygon fill="#1D1D1B" points="46.209,124.223 38.97,105.369 69.139,93.766 76.376,112.636 		"/>
	</g>
</g>
</svg>
