<svg width="30" height="30" viewBox="0 0 30 30" fill="none" xmlns="http://www.w3.org/2000/svg">
<path d="M15.0003 6.99996V28.3333M15.0003 6.99996H10.286C9.59143 6.99996 8.92526 6.71901 8.43409 6.21891C7.94293 5.71881 7.66699 5.04054 7.66699 4.33329C7.66699 3.62605 7.94293 2.94777 8.43409 2.44767C8.92526 1.94758 9.59143 1.66663 10.286 1.66663C13.9527 1.66663 15.0003 6.99996 15.0003 6.99996ZM15.0003 6.99996H19.7146C20.4092 6.99996 21.0754 6.71901 21.5666 6.21891C22.0577 5.71881 22.3337 5.04054 22.3337 4.33329C22.3337 3.62605 22.0577 2.94777 21.5666 2.44767C21.0754 1.94758 20.4092 1.66663 19.7146 1.66663C16.0479 1.66663 15.0003 6.99996 15.0003 6.99996ZM25.667 13.6666V24.0666C25.667 25.5601 25.667 26.3068 25.3763 26.8773C25.1207 27.379 24.7127 27.787 24.211 28.0426C23.6405 28.3333 22.8938 28.3333 21.4003 28.3333L8.60033 28.3333C7.10685 28.3333 6.36012 28.3333 5.78968 28.0426C5.28792 27.787 4.87997 27.379 4.62431 26.8773C4.33366 26.3068 4.33366 25.5601 4.33366 24.0666V13.6666M1.66699 9.13329L1.66699 11.5333C1.66699 12.28 1.66699 12.6534 1.81232 12.9386C1.94015 13.1895 2.14412 13.3935 2.395 13.5213C2.68022 13.6666 3.05359 13.6666 3.80033 13.6666L26.2003 13.6666C26.9471 13.6666 27.3204 13.6666 27.6056 13.5213C27.8565 13.3935 28.0605 13.1895 28.1883 12.9386C28.3337 12.6534 28.3337 12.28 28.3337 11.5333V9.13329C28.3337 8.38656 28.3337 8.01319 28.1883 7.72797C28.0605 7.47709 27.8565 7.27312 27.6056 7.14528C27.3204 6.99996 26.9471 6.99996 26.2003 6.99996L3.80033 6.99996C3.05359 6.99996 2.68022 6.99996 2.39501 7.14528C2.14412 7.27312 1.94015 7.47709 1.81232 7.72797C1.66699 8.01319 1.66699 8.38656 1.66699 9.13329Z" stroke="white" stroke-width="2" stroke-linecap="round" stroke-linejoin="round"/>
</svg>
