<svg width="467" height="469" viewBox="0 0 467 469" fill="none" xmlns="http://www.w3.org/2000/svg">
<circle opacity="0.15" cx="230.163" cy="230.163" r="230.163" fill="#CB1438"/>
<path d="M65.5506 249.619C61.8995 235.993 69.9857 221.987 83.6116 218.336L325.366 153.558C338.992 149.907 352.998 157.993 356.649 171.619L400.328 334.632C403.979 348.258 395.893 362.264 382.267 365.915L140.512 430.693C126.887 434.344 112.881 426.258 109.23 412.632L65.5506 249.619Z" stroke="#F2F2F2" stroke-width="8.70417"/>
<path d="M109.878 415.051C113.529 428.677 127.535 436.763 141.16 433.112L345.631 378.324L312.378 254.224L83.2362 315.623L109.878 415.051Z" stroke="#F2F2F2" stroke-width="8.70417"/>
<circle cx="329.797" cy="314.766" r="62.9866" transform="rotate(-15 329.797 314.766)" fill="#F2F2F2" stroke="#F2F2F2" stroke-width="8.70417"/>
<path d="M348.754 339.365C345.113 340.341 341.759 340.745 338.691 340.578C335.624 340.41 332.863 339.748 330.41 338.592C327.994 337.371 325.892 335.681 324.105 333.521C322.368 331.349 320.96 328.758 319.879 325.75C319.731 325.405 319.617 325.078 319.534 324.771C319.452 324.463 319.369 324.155 319.287 323.848L309.749 326.403L314.881 345.556C315.032 346.12 314.976 346.63 314.713 347.085C314.451 347.54 314.037 347.843 313.473 347.994L303.551 350.653C302.987 350.804 302.477 350.748 302.022 350.486C301.567 350.223 301.264 349.809 301.112 349.245L287.716 299.248C287.565 298.684 287.62 298.175 287.883 297.719C288.146 297.264 288.559 296.961 289.123 296.81L299.046 294.151C299.61 294 300.12 294.056 300.575 294.319C301.03 294.582 301.333 294.995 301.484 295.559L306.451 314.096L315.989 311.541C315.92 311.284 315.845 311.002 315.762 310.695C315.718 310.322 315.686 310.001 315.669 309.73C315.156 306.79 315.147 303.989 315.643 301.328C316.177 298.602 317.192 296.132 318.687 293.918C320.168 291.652 322.17 289.687 324.691 288.022C327.251 286.292 330.325 284.946 333.915 283.984C337.709 282.967 341.18 282.587 344.326 282.843C347.51 283.034 350.331 283.817 352.788 285.192C355.282 286.503 357.418 288.321 359.196 290.648C360.96 292.923 362.319 295.637 363.273 298.789C363.981 301.017 364.63 303.234 365.22 305.439C365.811 307.644 366.351 309.863 366.839 312.095C367.602 315.354 367.789 318.409 367.399 321.261C367.009 324.114 366.061 326.731 364.556 329.113C363.089 331.43 361.024 333.467 358.362 335.224C355.751 336.968 352.549 338.348 348.754 339.365ZM345.786 328.289C347.632 327.794 349.158 327.028 350.364 325.991C351.556 324.902 352.338 323.511 352.708 321.817C353.13 320.111 353.044 318.045 352.45 315.621C351.948 313.338 351.422 311.17 350.872 309.119C350.309 307.016 349.681 304.876 348.987 302.699C348.29 300.303 347.332 298.471 346.113 297.204C344.894 295.936 343.503 295.155 341.94 294.859C340.414 294.499 338.729 294.566 336.883 295.06C335.139 295.527 333.671 296.305 332.479 297.394C331.273 298.432 330.459 299.804 330.037 301.511C329.667 303.204 329.753 305.27 330.296 307.707C330.836 309.926 331.387 312.087 331.95 314.189C332.5 316.24 333.103 318.387 333.759 320.63C334.507 323.012 335.465 324.844 336.633 326.125C337.851 327.392 339.224 328.206 340.749 328.567C342.312 328.863 343.991 328.77 345.786 328.289Z" fill="#F2F2F2"/>
<rect x="189.939" y="219.036" width="223.217" height="223.217" rx="111.609" transform="rotate(-15 189.939 219.036)" fill="#F2F2F2"/>
<path d="M392.697 360.838C382.687 363.521 373.464 364.632 365.029 364.172C356.594 363.712 349.004 361.892 342.259 358.713C335.616 355.354 329.838 350.707 324.922 344.77C320.148 338.796 316.275 331.673 313.303 323.403C312.898 322.453 312.582 321.556 312.355 320.71C312.128 319.864 311.902 319.018 311.675 318.172L285.45 325.199L299.561 377.861C299.976 379.412 299.823 380.813 299.1 382.064C298.378 383.316 297.241 384.149 295.69 384.565L268.407 391.875C266.857 392.291 265.455 392.137 264.204 391.415C262.952 390.692 262.119 389.555 261.703 388.004L224.868 250.534C224.453 248.983 224.606 247.582 225.329 246.331C226.051 245.079 227.188 244.246 228.739 243.83L256.022 236.52C257.572 236.104 258.974 236.258 260.225 236.98C261.477 237.703 262.31 238.84 262.726 240.391L276.383 291.36L302.608 284.333C302.419 283.628 302.211 282.853 301.985 282.007C301.861 280.982 301.775 280.098 301.728 279.356C300.317 271.271 300.294 263.57 301.658 256.253C303.125 248.758 305.914 241.965 310.025 235.877C314.098 229.648 319.602 224.244 326.536 219.666C333.572 214.909 342.026 211.208 351.895 208.564C362.329 205.768 371.871 204.722 380.523 205.427C389.277 205.952 397.032 208.106 403.788 211.887C410.647 215.489 416.52 220.489 421.408 226.886C426.258 233.143 429.995 240.604 432.619 249.27C434.563 255.398 436.348 261.494 437.972 267.557C439.597 273.619 441.08 279.72 442.423 285.858C444.521 294.817 445.034 303.217 443.962 311.06C442.89 318.903 440.285 326.1 436.146 332.649C432.111 339.019 426.433 344.621 419.115 349.453C411.937 354.248 403.131 358.043 392.697 360.838ZM384.537 330.383C389.613 329.023 393.808 326.917 397.124 324.064C400.402 321.07 402.551 317.245 403.57 312.59C404.73 307.896 404.493 302.217 402.859 295.553C401.478 289.274 400.033 283.314 398.521 277.674C396.972 271.893 395.245 266.009 393.338 260.022C391.422 253.433 388.787 248.396 385.436 244.912C382.084 241.428 378.26 239.279 373.962 238.466C369.767 237.474 365.132 237.659 360.056 239.019C355.262 240.303 351.226 242.442 347.948 245.436C344.632 248.289 342.394 252.063 341.234 256.756C340.215 261.411 340.452 267.09 341.946 273.793C343.429 279.893 344.945 285.834 346.494 291.615C348.005 297.255 349.663 303.157 351.466 309.323C353.524 315.875 356.158 320.911 359.368 324.433C362.72 327.918 366.493 330.156 370.688 331.148C374.986 331.96 379.602 331.706 384.537 330.383Z" fill="#F7475B"/>
</svg>
